<svg id="Capa_1" enable-background="new 0 0 512 512" height="512" viewBox="0 0 512 512" width="512" xmlns="http://www.w3.org/2000/svg"><g><g><path d="m383.808 499.838h-255.616v-428.933c0-9.307 7.545-16.852 16.852-16.852h221.913c9.307 0 16.852 7.545 16.852 16.852v428.933z" fill="#0593fc"/><path d="m383.81 70.9v428.94h-19.15v-428.94c0-9.3-7.54-16.85-16.85-16.85h19.15c9.3 0 16.85 7.55 16.85 16.85z" fill="#0181fa"/><path d="m7.5 123.843h120.692v375.995h-120.692z" fill="#fd3581"/><path d="m108.93 123.84h19.26v376h-19.26z" fill="#fe0364"/><path d="m383.808 209.566h120.692v290.272h-120.692z" fill="#b9acac"/><path d="m485.92 209.57h18.58v290.27h-18.58z" fill="#9e9797"/><path d="m504.5 209.566h-75.544l11.819-30.316c2.514-6.449 8.727-10.694 15.648-10.694h48.077z" fill="#766e6e"/><path d="m485.92 168.56h18.58v41.01h-18.58z" fill="#5b5555"/><path d="m420.649 411.106h47.01v88.732h-47.01z" fill="#eaf6ff"/><path d="m450.2 411.11h17.46v88.73h-17.46z" fill="#c8effe"/><path d="m213.355 411.106h85.289v88.732h-85.289z" fill="#eaf6ff"/><path d="m279.87 411.11h18.77v88.73h-18.77z" fill="#c8effe"/><path d="m213.355 380.382h85.289v30.724h-85.289z" fill="#ffd15b"/><path d="m279.87 380.38h18.77v30.73h-18.77z" fill="#ffc344"/><path d="m220.949 344.421h-35.714c-4.099 0-7.422-3.323-7.422-7.422v-49.63c0-4.099 3.323-7.422 7.422-7.422h35.714c4.099 0 7.422 3.323 7.422 7.422v49.63c0 4.099-3.323 7.422-7.422 7.422z" fill="#eaf6ff"/><path d="m228.37 287.372v49.625c0 4.099-3.323 7.422-7.422 7.422h-10.598v-64.47h10.598c4.099.001 7.422 3.324 7.422 7.423z" fill="#c8effe"/><path d="m220.949 248.727h-35.714c-4.099 0-7.422-3.323-7.422-7.422v-49.63c0-4.099 3.323-7.422 7.422-7.422h35.714c4.099 0 7.422 3.323 7.422 7.422v49.63c0 4.098-3.323 7.422-7.422 7.422z" fill="#eaf6ff"/><path d="m228.37 191.672v49.635c0 4.099-3.323 7.422-7.422 7.422h-10.598v-64.48h10.598c4.099.001 7.422 3.324 7.422 7.423z" fill="#c8effe"/><path d="m220.949 153.032h-35.714c-4.099 0-7.422-3.323-7.422-7.422v-49.63c0-4.099 3.323-7.422 7.422-7.422h35.714c4.099 0 7.422 3.323 7.422 7.422v49.63c0 4.099-3.323 7.422-7.422 7.422z" fill="#eaf6ff"/><path d="m228.37 95.983v49.625c0 4.099-3.323 7.422-7.422 7.422h-10.598v-64.47h10.598c4.099 0 7.422 3.323 7.422 7.423z" fill="#c8effe"/><path d="m326.765 344.421h-35.714c-4.099 0-7.422-3.323-7.422-7.422v-49.63c0-4.099 3.323-7.422 7.422-7.422h35.714c4.099 0 7.422 3.323 7.422 7.422v49.63c0 4.099-3.323 7.422-7.422 7.422z" fill="#eaf6ff"/><path d="m334.19 287.372v49.625c0 4.099-3.323 7.422-7.422 7.422h-10.598v-64.47h10.598c4.099.001 7.422 3.324 7.422 7.423z" fill="#c8effe"/><path d="m326.765 248.727h-35.714c-4.099 0-7.422-3.323-7.422-7.422v-49.63c0-4.099 3.323-7.422 7.422-7.422h35.714c4.099 0 7.422 3.323 7.422 7.422v49.63c0 4.098-3.323 7.422-7.422 7.422z" fill="#eaf6ff"/><path d="m334.19 191.672v49.635c0 4.099-3.323 7.422-7.422 7.422h-10.598v-64.48h10.598c4.099.001 7.422 3.324 7.422 7.423z" fill="#c8effe"/><path d="m326.765 153.032h-35.714c-4.099 0-7.422-3.323-7.422-7.422v-49.63c0-4.099 3.323-7.422 7.422-7.422h35.714c4.099 0 7.422 3.323 7.422 7.422v49.63c0 4.099-3.323 7.422-7.422 7.422z" fill="#eaf6ff"/><path d="m334.19 95.983v49.625c0 4.099-3.323 7.422-7.422 7.422h-10.598v-64.47h10.598c4.099 0 7.422 3.323 7.422 7.423z" fill="#c8effe"/><path d="m355.801 54.053h-199.602v-25.869c0-8.849 7.173-16.022 16.022-16.022h167.557c8.849 0 16.022 7.173 16.022 16.022v25.869z" fill="#eaf6ff"/><path d="m355.8 28.18v25.87h-18.02v-25.87c0-8.84-7.17-16.02-16.02-16.02h18.02c8.85 0 16.02 7.18 16.02 16.02z" fill="#c8effe"/><path d="m80.956 209.566h-73.456v-48.742h73.311c4.891 0 8.856 3.965 8.856 8.856v31.175c0 4.811-3.9 8.711-8.711 8.711z" fill="#ffd15b"/><path d="m89.67 169.676v31.183c0 4.811-3.9 8.711-8.711 8.711h-13.109v-48.75h12.964c4.891 0 8.856 3.965 8.856 8.856z" fill="#ffc344"/><path d="m89.667 290.182h-82.167v-48.742h73.311c4.891 0 8.856 3.965 8.856 8.856z" fill="#ffd15b"/><path d="m89.67 250.296v39.884h-21.82v-48.74h12.964c4.891 0 8.856 3.965 8.856 8.856z" fill="#ffc344"/><path d="m80.811 385.206h-73.311v-95.024h82.167v86.168c0 4.891-3.965 8.856-8.856 8.856z" fill="#eaf6ff"/><path d="m89.67 290.18v86.174c0 4.891-3.965 8.856-8.856 8.856h-12.964v-95.03z" fill="#c8effe"/><path d="m46.025 421.363h43.642v78.475h-43.642z" fill="#eaf6ff"/><path d="m67.85 421.368h21.82v78.47h-21.82z" fill="#c8effe"/></g><g><path d="m135.692 70.904c0-5.156 4.195-9.352 9.352-9.352h221.912c5.156 0 9.352 4.195 9.352 9.352v27.392c0 4.143 3.357 7.5 7.5 7.5s7.5-3.357 7.5-7.5v-27.392c0-13.428-10.924-24.352-24.352-24.352h-3.655v-18.368c0-12.97-10.552-23.521-23.522-23.521h-167.557c-12.971 0-23.522 10.552-23.522 23.521v18.369h-3.655c-13.428 0-24.352 10.924-24.352 24.352v45.439h-113.193c-4.143 0-7.5 3.357-7.5 7.5s3.357 7.5 7.5 7.5h113.192v360.994h-23.525v-70.975c0-4.143-3.357-7.5-7.5-7.5h-43.643c-4.143 0-7.5 3.357-7.5 7.5v70.975h-31.024c-4.143 0-7.5 3.357-7.5 7.5s3.357 7.5 7.5 7.5h140.476c4.143 0 7.5-3.357 7.5-7.5s-3.357-7.5-7.5-7.5h-12.283v-421.434zm28.007-42.72c0-4.699 3.823-8.521 8.522-8.521h167.557c4.699 0 8.522 3.822 8.522 8.521v18.369h-184.601zm-110.175 464.154v-63.475h28.643v63.475z"/><path d="m504.5 217.066c4.143 0 7.5-3.357 7.5-7.5s-3.357-7.5-7.5-7.5h-64.57l7.832-20.092c1.402-3.596 4.802-5.919 8.661-5.919h48.077c4.143 0 7.5-3.357 7.5-7.5s-3.357-7.5-7.5-7.5h-48.077c-10.086 0-18.972 6.072-22.637 15.471l-9.956 25.54h-32.523v-68.604c0-4.143-3.357-7.5-7.5-7.5s-7.5 3.357-7.5 7.5v358.876h-70.163v-111.955c0-4.143-3.357-7.5-7.5-7.5h-85.289c-4.143 0-7.5 3.357-7.5 7.5v111.955h-20.339c-4.143 0-7.5 3.357-7.5 7.5s3.357 7.5 7.5 7.5h318.984c4.143 0 7.5-3.357 7.5-7.5s-3.357-7.5-7.5-7.5h-29.341v-73.731h29.341c4.143 0 7.5-3.357 7.5-7.5s-3.357-7.5-7.5-7.5h-113.192v-25.309h113.192c4.143 0 7.5-3.357 7.5-7.5s-3.357-7.5-7.5-7.5h-113.192v-25.308h113.192c4.143 0 7.5-3.357 7.5-7.5s-3.357-7.5-7.5-7.5h-113.192v-25.308h41.23c4.143 0 7.5-3.357 7.5-7.5s-3.357-7.5-7.5-7.5h-41.23v-25.309h113.192c4.143 0 7.5-3.357 7.5-7.5s-3.357-7.5-7.5-7.5h-113.192v-25.308h113.192zm-283.645 170.817h70.289v15.724h-70.289zm0 30.723h27.645v73.731h-27.645zm42.645 73.732v-73.731h27.645v73.731zm196.659-73.732v73.731h-32.01v-73.731zm-47.01 0v73.731h-21.842v-73.731z"/><path d="m504.5 282.683h-36.84c-4.143 0-7.5 3.357-7.5 7.5s3.357 7.5 7.5 7.5h36.84c4.143 0 7.5-3.357 7.5-7.5s-3.357-7.5-7.5-7.5z"/><path d="m220.948 351.921c8.229 0 14.923-6.694 14.923-14.922v-49.63c0-8.229-6.694-14.923-14.923-14.923h-35.713c-8.229 0-14.923 6.694-14.923 14.923v49.63c0 8.228 6.694 14.922 14.923 14.922zm-35.636-64.475h35.559v49.475h-35.559z"/><path d="m220.948 176.752h-35.713c-8.229 0-14.923 6.694-14.923 14.922v49.63c0 8.229 6.694 14.923 14.923 14.923h35.713c8.229 0 14.923-6.694 14.923-14.923v-49.63c0-8.228-6.694-14.922-14.923-14.922zm-.077 64.475h-35.559v-49.475h35.559z"/><path d="m235.871 95.979c0-8.229-6.694-14.923-14.923-14.923h-35.713c-8.229 0-14.923 6.694-14.923 14.923v49.63c0 8.228 6.694 14.922 14.923 14.922h35.713c8.229 0 14.923-6.694 14.923-14.922zm-15 49.552h-35.559v-49.474h35.559z"/><path d="m326.765 272.446h-35.713c-8.229 0-14.923 6.694-14.923 14.923v49.63c0 8.228 6.694 14.922 14.923 14.922h35.713c8.229 0 14.923-6.694 14.923-14.922v-49.63c0-8.228-6.695-14.923-14.923-14.923zm-.077 64.475h-35.559v-49.475h35.559z"/><path d="m341.688 191.674c0-8.228-6.694-14.922-14.923-14.922h-35.713c-8.229 0-14.923 6.694-14.923 14.922v49.63c0 8.229 6.694 14.923 14.923 14.923h35.713c8.229 0 14.923-6.694 14.923-14.923zm-15 49.553h-35.559v-49.475h35.559z"/><path d="m341.688 95.979c0-8.229-6.694-14.923-14.923-14.923h-35.713c-8.229 0-14.923 6.694-14.923 14.923v49.63c0 8.228 6.694 14.922 14.923 14.922h35.713c8.229 0 14.923-6.694 14.923-14.922zm-15 49.552h-35.559v-49.474h35.559z"/><path d="m80.956 202.066h-73.456c-4.143 0-7.5 3.357-7.5 7.5s3.357 7.5 7.5 7.5h73.456c8.938 0 16.211-7.272 16.211-16.211v-31.175c0-9.019-7.338-16.356-16.356-16.356h-73.311c-4.143 0-7.5 3.357-7.5 7.5s3.357 7.5 7.5 7.5h73.311c.748 0 1.356.608 1.356 1.356v31.175c0 .668-.543 1.211-1.211 1.211z"/><path d="m80.811 377.706h-73.311c-4.143 0-7.5 3.357-7.5 7.5s3.357 7.5 7.5 7.5h73.311c9.019 0 16.356-7.338 16.356-16.356v-126.054c0-9.019-7.338-16.356-16.356-16.356h-73.311c-4.143 0-7.5 3.357-7.5 7.5s3.357 7.5 7.5 7.5h73.311c.748 0 1.356.608 1.356 1.356v32.387h-74.667c-4.143 0-7.5 3.357-7.5 7.5s3.357 7.5 7.5 7.5h74.667v78.667c0 .748-.608 1.356-1.356 1.356z"/></g></g></svg>